<?xml version="1.0" encoding="utf-8"?>
<!-- Generator: Adobe Illustrator 18.1.0, SVG Export Plug-In . SVG Version: 6.00 Build 0)  -->
<svg version="1.1" id="Layer_1" xmlns="http://www.w3.org/2000/svg" xmlns:xlink="http://www.w3.org/1999/xlink" x="0px" y="0px"
	 viewBox="0 0 127 127" enable-background="new 0 0 127 127" xml:space="preserve">
<path d="M31,38.4c0,0-0.5-10.1,13.2-10.3h7.4l2.6,4.3l2.6-4.3h6.5c0,0,12.2-0.1,13.1,10.3v13.3h-8.1V40.1l-2.6,0v11.6H41.6l0-11.5
	H39v11.5H31V38.4z M54.3,25c5.3,0,9.6-4.3,9.6-9.6s-4.3-9.6-9.6-9.6c-5.3,0-9.6,4.3-9.6,9.6S49,25,54.3,25z M41.6,126.8h24.2
	L77.6,65H29.8L41.6,126.8z M113.1,12.8c0,6.8-7.5,12.4-17.1,12.9c-5,4.1-13.8,6.5-13.8,6.5c4.1-3.7,4.5-6.3,4.3-7.8
	c-6-2.1-10.1-6.5-10.1-11.5c0-7.1,8.2-12.9,18.3-12.9S113.1,5.6,113.1,12.8z M105.6,16c0-0.6-0.5-1.1-1.2-1.1H85
	c-0.6,0-1.1,0.5-1.1,1.1c0,0.6,0.5,1.1,1.1,1.1h19.5C105.1,17.1,105.6,16.6,105.6,16z M105.6,9.7c0-0.6-0.5-1.1-1.2-1.1H85
	c-0.6,0-1.1,0.5-1.1,1.1s0.5,1.1,1.1,1.1h19.5C105.1,10.9,105.6,10.4,105.6,9.7z M22.4,62.6h62.5v-9.2H22.4V62.6z"/>
</svg>
