<?xml version="1.0" encoding="utf-8"?>
<!-- Generator: Adobe Illustrator 18.1.0, SVG Export Plug-In . SVG Version: 6.00 Build 0)  -->
<svg version="1.1" id="Layer_1" xmlns="http://www.w3.org/2000/svg" xmlns:xlink="http://www.w3.org/1999/xlink" x="0px" y="0px"
	 viewBox="0 0 127 127" enable-background="new 0 0 127 127" xml:space="preserve">
<path d="M126.4,8.6v50.6c0,1.4-1.2,2.6-2.6,2.6H55c-1.4,0-2.6-1.2-2.6-2.6v-4l5.2-3.5v4.9h63.5V11.2H57.6v19.1
	c-0.2,0.2-0.5,0.3-0.7,0.5l-0.7,0.5c-0.9-2.3-2.2-4.1-3.8-5.6V8.6C52.4,7.1,53.6,6,55,6h68.8C125.2,6,126.4,7.1,126.4,8.6z
	 M64.8,42.8l3.1-2.1h0c0,0,0,0,0,0c1.6-1.6,1.8-3.9,0.8-5.8l25.3-17.1l-1.1-1.7L67.4,33.4c-0.8-0.6-1.7-0.9-2.6-1
	c-1.3,0-2.7,0.4-3.7,1.4c0,0,0,0,0,0l-0.6,0.4l-5.7,3.9v-1.6C53.7,24,39.2,24.2,39.2,24.2H33l-5.3,8.7l-5.3-8.7h-6
	C0,24.5,0.6,36.5,0.6,36.5v28h0c0,0.1,0,0.2,0,0.2c0,2.7,2.2,4.8,4.8,4.8c2.6,0,4.8-2.2,4.8-4.8c0-0.1,0-0.1,0-0.2h0V38.6h3l0,81.6
	c0,3.6,2.9,6.5,6.5,6.5c3.6,0,6.5-2.9,6.5-6.5V67.6h2.9v52.7l0.1,0.1c0,3.5,2.9,6.4,6.5,6.4c3.6,0,6.5-2.9,6.5-6.5l0-81.8h3.1V47
	c0,0,0,0,0,0c0,2.6,2.2,4.8,4.8,4.8c0.8,0,1.5-0.2,2.1-0.6l0,0l8.3-5.6L64.8,42.8z M27.6,22.1c6.1,0,11-4.9,11-11
	c0-6.1-4.9-11-11-11c-6.1,0-11,4.9-11,11C16.6,17.2,21.5,22.1,27.6,22.1z"/>
</svg>
